# xmcd CD database file
#
# Track frame offsets:
#	187
#	11860
#	23630
#	35182
#	48350
#	59975
#	73317
#	85977
#	99422
#	112132
#	124320
#	137402
#	149880
#	163580
#	175717
#	189167
#	203642
#	215035
#	227980
#	239507
#	263650
#	277690
#	292792
#	303890
#	316212
#	329502
#	340707
#
# Disc length: 4719 seconds
#
# Revision: 0
# Processed by: cddbd v1.5.1PL2 Copyright (c) Steve Scherf et al.
# Submitted via: CDex 1.51
#
DISCID=9a126d1b
DTITLE=Louis Jordan - Louis Jordan 1939-1954
DYEAR=1900
DGENRE=Blues
TTITLE0=Doug The Jitterbug
TTITLE1=You Run Your Mouth And I'll Run My Business
TTITLE2=Penthouse In The Basement
TTITLE3=Five Guys Named Moe
TTITLE4=I Like'em Fat Like That
TTITLE5=G.I. Jive
TTITLE6=Buzz Me
TTITLE7=Salt Pork, West Virginia
TTITLE8=Beware
TTITLE9=Choo-Choo Ch' Boogie
TTITLE10=Ain't That Just Like A Woman (They'll Do It Every Time)
TTITLE11=Let The Good Times Roll
TTITLE12=Texas And Pacific
TTITLE13=Reet, Petite And Gone
TTITLE14=Inflation Blues
TTITLE15=Daddy-O (Duet with Martha Davis)
TTITLE16=Push Ka Pee Shee Pie
TTITLE17=Onions
TTITLE18=School Days
TTITLE19=Saturday Night Fish Fry
TTITLE20=It's A Great Great Pleasure
TTITLE21=Life Is So Peculiar (Duet with Louis Armstrong)
TTITLE22=Weak Minded Blues
TTITLE23=How Blue Can You Get?
TTITLE24=Fat Sam From Birmingham
TTITLE25=Stop Makin' Music
TTITLE26=Perdido
EXTD=
EXTT0=
EXTT1=
EXTT2=
EXTT3=
EXTT4=
EXTT5=
EXTT6=
EXTT7=
EXTT8=
EXTT9=
EXTT10=
EXTT11=
EXTT12=
EXTT13=
EXTT14=
EXTT15=
EXTT16=
EXTT17=
EXTT18=
EXTT19=
EXTT20=
EXTT21=
EXTT22=
EXTT23=
EXTT24=
EXTT25=
EXTT26=
PLAYORDER=
